<svg width="313" height="313" viewBox="0 0 313 313" fill="none" xmlns="http://www.w3.org/2000/svg">
<g clip-path="url(#clip0_648_4452)">
<rect width="312.978" height="312.978" rx="156.489" fill="#1D70D2"/>
<path fill-rule="evenodd" clip-rule="evenodd" d="M62.527 115.862C67.7773 107.829 70.803 101.61 72.7968 93.7573C74.3948 56.2581 101.769 26.4103 135.304 26.4103C141.754 26.4103 147.976 27.5146 153.831 29.565C159.685 27.5146 165.908 26.4103 172.358 26.4103C206.142 26.4103 233.674 56.7043 234.896 94.5964C236.009 108.352 238.177 116.305 244.627 127.681C255.828 138.48 262.935 154.583 262.935 172.57C262.935 174.121 262.883 175.658 262.779 177.178C271.903 179.988 278.581 189.026 278.581 199.742C278.581 212.703 268.811 223.21 256.76 223.21C251.807 223.21 247.24 221.435 243.578 218.445C234.682 226.577 223.371 231.445 211.059 231.445C189.239 231.445 170.566 216.156 162.902 194.502C153.64 220.505 131.132 238.857 104.836 238.857C89.475 238.857 75.4064 232.594 64.5159 222.201C60.7839 225.41 56.0512 227.328 50.9019 227.328C38.8506 227.328 29.0811 216.821 29.0811 203.86C29.0811 193.719 35.0616 185.081 43.4363 181.802C42.6617 177.351 42.2557 172.75 42.2557 168.042C42.2557 147.392 50.0664 128.807 62.527 115.862Z" fill="#2B2B2B"/>
<g filter="url(#filter0_d_648_4452)">
<path d="M90.7426 262.48L103.569 215.401C105.002 210.142 100.494 205.171 95.1201 206.084L83.9451 207.984C82.0012 208.314 80.2672 209.4 79.1218 211.005L43.9387 260.311C43.4625 260.978 43.0996 261.719 42.8645 262.505L29.5425 306.997C28.3251 311.063 30.7399 315.324 34.8536 316.369L64.0581 323.786C67.894 324.76 71.8232 322.57 73.0117 318.795L90.7426 262.48Z" fill="#FFD8B6"/>
<line x1="51.1758" y1="266.428" x2="76.37" y2="277.874" stroke="#F3C59B" stroke-width="2.98453"/>
<path fill-rule="evenodd" clip-rule="evenodd" d="M63.3995 312.628C63.4 312.626 63.4005 312.624 63.401 312.622C63.5984 311.774 58.949 309.967 53.0164 308.586C47.0838 307.204 42.1145 306.771 41.9172 307.619C41.9171 307.619 41.9171 307.619 41.9171 307.619L41.917 307.619L37.9863 324.5L59.4702 329.502L63.3995 312.628Z" fill="#FFD8B6"/>
<path d="M56.2768 363.416C81.4571 312.058 11.1019 302.581 14.4483 354.964" stroke="#FFD8B6" stroke-width="19.7623" stroke-linecap="round"/>
<path d="M229.097 264.126L216.336 217.041C214.91 211.778 219.425 206.808 224.798 207.728L235.944 209.637C237.886 209.97 239.617 211.058 240.76 212.664L275.852 262.008C276.327 262.675 276.689 263.416 276.923 264.201L290.182 308.706C291.394 312.774 288.974 317.035 284.859 318.076L255.692 325.459C251.857 326.43 247.932 324.237 246.749 320.46L229.097 264.126Z" fill="#FFD8B6"/>
<line y1="-1.49226" x2="27.6472" y2="-1.49226" transform="matrix(-0.910716 0.413034 0.412284 0.911055 269.231 269.476)" stroke="#F3C59B" stroke-width="2.98452"/>
<path fill-rule="evenodd" clip-rule="evenodd" d="M252.769 315.92C252.768 315.916 252.767 315.913 252.766 315.909C252.634 315.278 258.762 313.162 266.452 311.182C274.142 309.203 280.483 308.11 280.615 308.741C280.615 308.742 280.615 308.743 280.615 308.744L280.616 308.744L283.239 321.316L255.39 328.484L252.769 315.92Z" fill="#FFD8B6"/>
<path d="M259.588 366.006C236.372 313.275 301.396 303.623 298.25 357.375" stroke="#FFD8B6" stroke-width="19.7623" stroke-linecap="round"/>
<path d="M91.1989 213.437C91.7835 205.648 98.2763 199.628 106.088 199.632L211.054 199.688C218.614 199.692 224.976 205.348 225.865 212.856L242.734 355.352L80.547 355.352L91.1989 213.437Z" fill="#EB2831"/>
<path d="M98.5379 114.867C98.5445 102.505 108.571 92.4887 120.934 92.4952L192.13 92.5331C204.492 92.5397 214.508 102.567 214.502 114.929L214.475 164.698C214.469 177.06 204.442 187.077 192.079 187.07L120.883 187.032C108.521 187.026 98.5048 176.999 98.5114 164.636L98.5379 114.867Z" fill="#FFD8B6"/>
<rect x="121.559" y="78.3132" width="74.0539" height="14.1805" transform="rotate(0.0304899 121.559 78.3132)" fill="#FFD8B6"/>
<rect x="121.502" y="185.453" width="74.0539" height="14.1805" transform="rotate(0.0304899 121.502 185.453)" fill="#FFD8B6"/>
<path d="M91.2511 203.034L126.659 198.916L157.537 198.916L224.235 198.916L226.294 217.444L227.94 227.325L159.671 239.134L89.5697 231.248L91.2511 203.034Z" fill="#FFD8B6"/>
<g filter="url(#filter1_d_648_4452)">
<path d="M129.398 187.766C129.398 187.766 133.829 193.09 162.211 193.105C190.592 193.12 186.062 189.212 186.062 189.212" stroke="#F0BA89" stroke-width="1.68"/>
</g>
</g>
<path fill-rule="evenodd" clip-rule="evenodd" d="M108.384 148.913L110.935 146.043C114.219 141.35 116.365 133.59 116.365 124.811C116.365 110.486 110.65 98.8732 103.601 98.8732C96.5525 98.8732 90.8382 110.486 90.8382 124.811C90.8382 131.285 92.0052 137.205 93.9351 141.749L92.3879 141.77C88.2954 141.823 85.0212 145.185 85.0749 149.277L85.5003 181.722C85.5259 183.669 86.2999 185.431 87.5452 186.737L87.5451 186.783C87.5451 193.259 94.181 198.508 102.367 198.508C110.553 198.508 113.071 193.259 113.071 186.783C113.071 184.544 112.542 183.76 111.511 183.692C111.543 183.59 111.573 183.486 111.6 183.382C106.467 180.937 102.69 173.776 102.578 165.274C102.488 158.404 104.814 152.346 108.384 148.913Z" fill="#2A2A2A"/>
<path fill-rule="evenodd" clip-rule="evenodd" d="M208.143 148.912L205.393 146.044C201.849 141.351 199.533 133.591 199.533 124.811C199.533 110.486 205.699 98.8732 213.304 98.8732C220.909 98.8732 227.075 110.486 227.075 124.811C227.075 131.285 225.816 137.205 223.734 141.749L225.988 141.777C230.08 141.827 233.351 145.184 233.293 149.277L232.834 181.722C232.805 183.749 231.966 185.576 230.628 186.898C230.544 193.321 223.417 198.508 214.637 198.508C205.805 198.508 203.087 193.259 203.087 186.783C203.087 184.563 203.649 183.773 204.742 183.694C204.711 183.594 204.681 183.493 204.654 183.391C210.202 180.954 214.288 173.786 214.408 165.274C214.505 158.403 211.995 152.345 208.143 148.912Z" fill="#2A2A2A"/>
<path d="M103.19 193.718L109.288 182.039L119.925 186.267C121.061 186.719 121.947 187.658 122.299 188.829C125.809 200.518 123.073 202.576 115.662 200.229L103.19 193.718Z" fill="#2A2A2A"/>
<path fill-rule="evenodd" clip-rule="evenodd" d="M158.852 61.2192L102.367 76.4118V114.588H102.819C110.62 107.793 120.816 103.679 131.973 103.679C142.253 103.679 151.716 107.171 159.242 113.034C166.768 107.171 176.232 103.679 186.511 103.679C197.148 103.679 206.911 107.419 214.558 113.655V76.4118L158.852 61.2192Z" fill="#2A2A2A"/>
<path fill-rule="evenodd" clip-rule="evenodd" d="M158.852 59.3507L102.367 74.5432V112.719H102.821C110.621 105.926 120.817 101.812 131.973 101.812C142.252 101.812 151.716 105.304 159.242 111.167C166.768 105.304 176.231 101.812 186.51 101.812C197.147 101.812 206.911 105.551 214.558 111.788V74.5432L158.852 59.3507Z" fill="#FFC700"/>
<path d="M160.411 64.0256L164.697 77.2151H178.565L167.345 85.3666L171.631 98.5561L160.411 90.4046L149.192 98.5561L153.477 85.3666L142.257 77.2151H156.126L160.411 64.0256Z" fill="#EB2831"/>
<ellipse cx="98.7362" cy="200.732" rx="25.1146" ry="9.2941" transform="rotate(-6.56519 98.7362 200.732)" fill="#2A2A2A"/>
<ellipse cx="218.878" cy="206.86" rx="25.1146" ry="9.2941" transform="rotate(22.6084 218.878 206.86)" fill="#2A2A2A"/>
<path d="M89.7247 221.975L160.449 234.038L228.351 224.446L230.822 248.737L160.449 259.441L88.3682 246.267L89.7247 221.975Z" fill="#FAFAFA"/>
<path d="M157.001 226.505L179.966 240.709H134.036L157.001 226.505Z" fill="#FAFAFA"/>
<path d="M157.983 239.68L180.948 253.884H135.018L157.983 239.68Z" fill="#FFC700"/>
<path fill-rule="evenodd" clip-rule="evenodd" d="M88.7811 237.208L161.744 249.682L229.587 240.09L231.881 259.099C222.835 257.307 209.018 257.622 194.067 260.412C178.463 263.324 165.34 268.238 158.234 273.307C150.785 268.761 138.62 264.498 124.41 261.899C109.873 259.241 96.4175 258.913 87.376 260.57L88.7811 237.208Z" fill="#FFC700"/>
<ellipse cx="94.3804" cy="206.747" rx="35.8803" ry="23.3183" transform="rotate(-15.2508 94.3804 206.747)" fill="#2A2A2A"/>
<path d="M159.05 152.977L155.135 152.101C154.361 151.928 153.55 152.052 152.863 152.449C151.355 153.323 150.84 155.252 151.712 156.761L153.931 160.602C154.531 161.64 155.639 162.28 156.838 162.28L162.747 162.284C163.929 162.284 165.024 161.664 165.631 160.649L168.899 155.191C169.001 155.021 169.055 154.826 169.054 154.628C169.054 154.255 168.864 153.908 168.551 153.707L166.811 152.592C166.057 152.109 165.142 151.947 164.268 152.142L160.513 152.977C160.031 153.085 159.532 153.085 159.05 152.977Z" fill="#FF3938"/>
<path d="M144.078 151.371C158.269 159.364 165.41 157.528 177.781 151.389" stroke="black" stroke-width="1.176"/>
<ellipse cx="176.905" cy="132.76" rx="6.20843" ry="7.98227" transform="rotate(0.0304899 176.905 132.76)" fill="black"/>
<ellipse cx="141.428" cy="133.279" rx="6.20843" ry="7.98227" transform="rotate(0.0304899 141.428 133.279)" fill="black"/>
<path d="M170.702 121.229C175.544 118.833 178.283 118.901 183.119 121.235" stroke="black" stroke-width="0.839999"/>
<path d="M135.226 121.209C140.068 118.814 142.806 118.882 147.642 121.216" stroke="black" stroke-width="0.839999"/>
<path d="M182.725 124.954C181.821 127.287 180.903 127.698 178.924 127.666" stroke="black" stroke-width="1.23514"/>
<path d="M146.494 124.954C145.59 127.287 144.671 127.698 142.693 127.666" stroke="black" stroke-width="1.23514"/>
</g>
<defs>
<filter id="filter0_d_648_4452" x="1.20965" y="78.3132" width="329.651" height="512.014" filterUnits="userSpaceOnUse" color-interpolation-filters="sRGB">
<feFlood flood-opacity="0" result="BackgroundImageFix"/>
<feColorMatrix in="SourceAlpha" type="matrix" values="0 0 0 0 0 0 0 0 0 0 0 0 0 0 0 0 0 0 127 0" result="hardAlpha"/>
<feOffset dx="9.7275" dy="12.97"/>
<feGaussianBlur stdDeviation="6.485"/>
<feComposite in2="hardAlpha" operator="out"/>
<feColorMatrix type="matrix" values="0 0 0 0 0 0 0 0 0 0 0 0 0 0 0 0 0 0 0.25 0"/>
<feBlend mode="normal" in2="BackgroundImageFix" result="effect1_dropShadow_648_4452"/>
<feBlend mode="normal" in="SourceGraphic" in2="effect1_dropShadow_648_4452" result="shape"/>
</filter>
<filter id="filter1_d_648_4452" x="124.387" y="184.525" width="67.1481" height="15.4674" filterUnits="userSpaceOnUse" color-interpolation-filters="sRGB">
<feFlood flood-opacity="0" result="BackgroundImageFix"/>
<feColorMatrix in="SourceAlpha" type="matrix" values="0 0 0 0 0 0 0 0 0 0 0 0 0 0 0 0 0 0 127 0" result="hardAlpha"/>
<feOffset dy="1.68"/>
<feGaussianBlur stdDeviation="2.184"/>
<feComposite in2="hardAlpha" operator="out"/>
<feColorMatrix type="matrix" values="0 0 0 0 0 0 0 0 0 0 0 0 0 0 0 0 0 0 0.25 0"/>
<feBlend mode="normal" in2="BackgroundImageFix" result="effect1_dropShadow_648_4452"/>
<feBlend mode="normal" in="SourceGraphic" in2="effect1_dropShadow_648_4452" result="shape"/>
</filter>
<clipPath id="clip0_648_4452">
<rect width="312.978" height="312.978" rx="156.489" fill="white"/>
</clipPath>
</defs>
</svg>
