<svg width="690" height="690" viewBox="0 0 690 690" fill="none" xmlns="http://www.w3.org/2000/svg">
<g clip-path="url(#clip0_579_1309)">
<rect width="689.043" height="689.043" rx="344.522" fill="white"/>
<path fill-rule="evenodd" clip-rule="evenodd" d="M137.66 255.079C149.218 237.395 155.879 223.703 160.268 206.416C163.785 123.857 224.052 58.1436 297.882 58.1436C312.083 58.1436 325.781 60.5746 338.671 65.089C351.561 60.5746 365.259 58.1436 379.46 58.1436C453.839 58.1436 514.452 124.837 517.143 208.259C519.593 238.544 524.365 256.053 538.568 281.099C563.227 304.874 578.873 340.326 578.873 379.925C578.873 383.339 578.757 386.723 578.528 390.071C598.615 396.257 613.317 416.155 613.317 439.746C613.317 468.28 591.808 491.412 565.276 491.412C554.373 491.412 544.318 487.505 536.255 480.922C516.67 498.826 491.77 509.543 464.664 509.543C416.626 509.543 375.514 475.883 358.642 428.21C338.25 485.457 288.698 525.86 230.807 525.86C196.988 525.86 166.014 512.072 142.038 489.192C133.822 496.255 123.402 500.478 112.066 500.478C85.5338 500.478 64.0254 477.346 64.0254 448.812C64.0254 426.487 77.1921 407.468 95.6299 400.249C93.9246 390.45 93.0307 380.321 93.0307 369.955C93.0307 324.494 110.227 283.577 137.66 255.079Z" fill="#2B2B2B"/>
<g filter="url(#filter0_d_579_1309)">
<path d="M199.773 577.868L228.012 474.222C231.167 462.642 221.243 451.698 209.411 453.709L184.808 457.891C180.528 458.618 176.711 461.01 174.189 464.544L96.7309 573.094C95.6827 574.563 94.8837 576.194 94.366 577.923L65.0368 675.875C62.3565 684.827 67.6729 694.208 76.7295 696.508L141.025 712.838C149.47 714.983 158.121 710.161 160.737 701.85L199.773 577.868Z" fill="#FFD8B6"/>
<line x1="112.664" y1="586.562" x2="168.13" y2="611.761" stroke="#F3C59B" stroke-width="6.57066"/>
<path fill-rule="evenodd" clip-rule="evenodd" d="M139.584 688.262C139.584 688.262 139.584 688.262 139.584 688.261C140.018 686.395 129.782 682.417 116.721 679.376C103.66 676.335 92.7201 675.382 92.2856 677.248C92.2854 677.249 92.2851 677.249 92.2849 677.25L83.6317 714.411L130.93 725.425L139.584 688.262Z" fill="#FFD8B6"/>
<path d="M123.899 800.09C179.335 687.02 24.4428 666.156 31.8101 781.482" stroke="#FFD8B6" stroke-width="43.5082" stroke-linecap="round"/>
<path d="M504.375 581.493L476.281 477.833C473.141 466.244 483.082 455.303 494.911 457.329L519.448 461.531C523.724 462.264 527.536 464.66 530.051 468.196L607.31 576.829C608.355 578.299 609.151 579.93 609.666 581.658L638.858 679.638C641.526 688.595 636.198 697.976 627.139 700.269L562.926 716.522C554.481 718.66 545.841 713.83 543.236 705.517L504.375 581.493Z" fill="#FFD8B6"/>
<line y1="-3.28533" x2="60.8673" y2="-3.28533" transform="matrix(-0.910716 0.413034 0.412284 0.911055 592.733 593.271)" stroke="#F3C59B" stroke-width="6.57065"/>
<path fill-rule="evenodd" clip-rule="evenodd" d="M556.49 695.516C556.488 695.509 556.487 695.503 556.485 695.497C556.196 694.107 569.685 689.448 586.616 685.09C603.547 680.732 617.507 678.326 617.797 679.716C617.797 679.718 617.797 679.719 617.798 679.721L617.799 679.721L623.573 707.4L562.262 723.182L556.49 695.516Z" fill="#FFD8B6"/>
<path d="M571.503 805.789C520.392 689.699 663.547 668.45 656.62 786.789" stroke="#FFD8B6" stroke-width="43.5082" stroke-linecap="round"/>
<path d="M200.781 469.899C202.068 452.75 216.363 439.495 233.56 439.504L464.65 439.627C481.294 439.636 495.302 452.09 497.258 468.618L534.397 782.334L177.33 782.333L200.781 469.899Z" fill="#EB2831"/>
<path d="M216.941 252.888C216.956 225.672 239.031 203.62 266.247 203.635L422.991 203.718C450.207 203.733 472.259 225.808 472.244 253.024L472.186 362.594C472.171 389.811 450.096 411.863 422.88 411.848L266.136 411.765C238.92 411.75 216.868 389.675 216.883 362.459L216.941 252.888Z" fill="#FFD8B6"/>
<rect x="267.623" y="172.412" width="163.035" height="31.2195" transform="rotate(0.0304899 267.623 172.412)" fill="#FFD8B6"/>
<rect x="267.498" y="408.287" width="163.035" height="31.2195" transform="rotate(0.0304899 267.498 408.287)" fill="#FFD8B6"/>
<path d="M200.895 446.995L278.847 437.929L346.829 437.929L493.669 437.929L498.201 478.72L501.827 500.474L351.527 526.471L197.193 509.109L200.895 446.995Z" fill="#FFD8B6"/>
<g filter="url(#filter1_d_579_1309)">
<path d="M284.879 413.381C284.879 413.381 294.634 425.101 357.118 425.134C419.602 425.167 409.628 416.565 409.628 416.565" stroke="#F0BA89" stroke-width="3.69864"/>
</g>
</g>
<path fill-rule="evenodd" clip-rule="evenodd" d="M238.613 327.846L244.235 321.52C251.463 311.187 256.186 294.105 256.186 274.78C256.186 243.242 243.606 217.676 228.087 217.676C212.569 217.676 199.988 243.242 199.988 274.78C199.988 289.033 202.557 302.066 206.806 312.071L203.4 312.116C194.39 312.234 187.182 319.634 187.3 328.644L188.236 400.073C188.293 404.359 189.996 408.237 192.737 411.113L192.737 411.215C192.737 425.473 207.347 437.03 225.368 437.03C243.39 437.03 248.935 425.472 248.935 411.215C248.935 406.287 247.77 404.56 245.5 404.41C245.571 404.185 245.637 403.958 245.698 403.729C234.397 398.346 226.08 382.58 225.834 363.862C225.636 348.739 230.755 335.404 238.613 327.846Z" fill="#2A2A2A"/>
<path fill-rule="evenodd" clip-rule="evenodd" d="M458.251 327.851L452.181 321.521C444.381 311.188 439.285 294.105 439.285 274.78C439.285 243.242 452.858 217.676 469.602 217.676C486.346 217.676 499.92 243.242 499.92 274.78C499.92 289.033 497.147 302.066 492.563 312.071L497.526 312.131C506.536 312.241 513.737 319.634 513.61 328.643L512.599 400.074C512.536 404.536 510.687 408.558 507.742 411.468C507.557 425.609 491.866 437.03 472.537 437.03C453.092 437.03 447.109 425.472 447.109 411.215C447.109 406.329 448.345 404.59 450.752 404.414C450.683 404.194 450.619 403.972 450.559 403.747C462.773 398.382 471.767 382.601 472.032 363.862C472.246 348.743 466.725 335.41 458.251 327.851Z" fill="#2A2A2A"/>
<path d="M227.182 426.484L240.605 400.771L264.024 410.08C266.525 411.074 268.476 413.142 269.25 415.719C276.977 441.453 270.954 445.984 254.639 440.819L227.182 426.484Z" fill="#2A2A2A"/>
<path fill-rule="evenodd" clip-rule="evenodd" d="M349.724 134.777L225.368 168.225V252.272H226.362C243.536 237.314 265.984 228.256 290.547 228.256C313.177 228.256 334.012 235.945 350.581 248.852C367.15 235.945 387.984 228.256 410.615 228.256C434.033 228.256 455.529 236.49 472.365 250.22V168.225L349.724 134.777Z" fill="#2A2A2A"/>
<path fill-rule="evenodd" clip-rule="evenodd" d="M349.724 130.664L225.368 164.112V248.159H226.365C243.538 233.202 265.985 224.145 290.547 224.145C313.177 224.145 334.012 231.833 350.581 244.741C367.15 231.833 387.984 224.145 410.615 224.145C434.033 224.145 455.529 232.379 472.365 246.109V164.112L349.724 130.664Z" fill="#FFC700"/>
<path d="M353.155 140.956L362.59 169.994H393.122L368.421 187.94L377.856 216.978L353.155 199.031L328.454 216.978L337.889 187.94L313.188 169.994H343.72L353.155 140.956Z" fill="#EB2831"/>
<ellipse cx="217.374" cy="441.926" rx="55.2917" ry="20.4617" transform="rotate(-6.56519 217.374 441.926)" fill="#2A2A2A"/>
<ellipse cx="481.877" cy="455.417" rx="55.2917" ry="20.4617" transform="rotate(22.6084 481.877 455.417)" fill="#2A2A2A"/>
<path d="M197.537 488.695L353.242 515.252L502.733 494.134L508.172 547.613L353.242 571.18L194.55 542.174L197.537 488.695Z" fill="white"/>
<path d="M345.651 498.668L396.21 529.939H295.092L345.651 498.668Z" fill="white"/>
<path d="M347.812 527.672L398.371 558.943H297.253L347.812 527.672Z" fill="#FFC700"/>
<path fill-rule="evenodd" clip-rule="evenodd" d="M195.456 522.23L356.089 549.694L505.451 528.575L510.502 570.426C490.586 566.48 460.167 567.175 427.253 573.317C392.898 579.728 364.007 590.547 348.363 601.705C331.963 591.697 305.182 582.311 273.896 576.59C241.892 570.737 212.268 570.017 192.363 573.663L195.456 522.23Z" fill="#FFC700"/>
<ellipse cx="207.786" cy="455.168" rx="78.9931" ry="51.3369" transform="rotate(-15.2508 207.786 455.168)" fill="#2A2A2A"/>
<path d="M350.157 336.79L341.538 334.861C339.834 334.48 338.049 334.754 336.538 335.629C333.218 337.551 332.083 341.8 334.003 345.121L338.888 353.576C340.209 355.862 342.649 357.271 345.289 357.273L358.297 357.279C360.899 357.281 363.311 355.915 364.648 353.682L371.842 341.664C372.066 341.29 372.184 340.862 372.184 340.425C372.184 339.605 371.766 338.841 371.075 338.398L367.245 335.943C365.585 334.88 363.57 334.523 361.646 334.951L353.38 336.791C352.319 337.028 351.218 337.027 350.157 336.79Z" fill="#FF3938"/>
<path d="M317.197 333.256C348.44 350.853 364.16 346.812 391.396 333.295" stroke="black" stroke-width="2.58905"/>
<ellipse cx="311.362" cy="293.423" rx="13.6683" ry="17.5736" transform="rotate(0.0304899 311.362 293.423)" fill="black"/>
<path d="M375.811 266.895C386.472 261.621 392.5 261.771 403.148 266.91" stroke="black" stroke-width="1.84932"/>
<path d="M297.707 266.852C308.368 261.578 314.397 261.728 325.044 266.867" stroke="black" stroke-width="1.84932"/>
<path d="M402.281 275.094C400.291 280.232 398.269 281.136 393.913 281.066" stroke="black" stroke-width="2.71926"/>
<path d="M322.516 275.094C320.526 280.232 318.504 281.136 314.148 281.066" stroke="black" stroke-width="2.71926"/>
<path d="M373.558 293.336C382.259 281.148 388.538 278.7 402.475 282.919" stroke="black" stroke-width="3.47125"/>
</g>
<defs>
<filter id="filter0_d_579_1309" x="2.66413" y="172.412" width="725.75" height="1127.24" filterUnits="userSpaceOnUse" color-interpolation-filters="sRGB">
<feFlood flood-opacity="0" result="BackgroundImageFix"/>
<feColorMatrix in="SourceAlpha" type="matrix" values="0 0 0 0 0 0 0 0 0 0 0 0 0 0 0 0 0 0 127 0" result="hardAlpha"/>
<feOffset dx="21.4158" dy="28.5544"/>
<feGaussianBlur stdDeviation="14.2772"/>
<feComposite in2="hardAlpha" operator="out"/>
<feColorMatrix type="matrix" values="0 0 0 0 0 0 0 0 0 0 0 0 0 0 0 0 0 0 0.25 0"/>
<feBlend mode="normal" in2="BackgroundImageFix" result="effect1_dropShadow_579_1309"/>
<feBlend mode="normal" in="SourceGraphic" in2="effect1_dropShadow_579_1309" result="shape"/>
</filter>
<filter id="filter1_d_579_1309" x="273.845" y="406.246" width="147.833" height="34.0532" filterUnits="userSpaceOnUse" color-interpolation-filters="sRGB">
<feFlood flood-opacity="0" result="BackgroundImageFix"/>
<feColorMatrix in="SourceAlpha" type="matrix" values="0 0 0 0 0 0 0 0 0 0 0 0 0 0 0 0 0 0 127 0" result="hardAlpha"/>
<feOffset dy="3.69864"/>
<feGaussianBlur stdDeviation="4.80823"/>
<feComposite in2="hardAlpha" operator="out"/>
<feColorMatrix type="matrix" values="0 0 0 0 0 0 0 0 0 0 0 0 0 0 0 0 0 0 0.25 0"/>
<feBlend mode="normal" in2="BackgroundImageFix" result="effect1_dropShadow_579_1309"/>
<feBlend mode="normal" in="SourceGraphic" in2="effect1_dropShadow_579_1309" result="shape"/>
</filter>
<clipPath id="clip0_579_1309">
<rect width="689.043" height="689.043" rx="344.522" fill="white"/>
</clipPath>
</defs>
</svg>
