<svg width="511" height="511" viewBox="0 0 511 511" fill="none" xmlns="http://www.w3.org/2000/svg">
<g clip-path="url(#clip0_420_1329)">
<rect width="510.185" height="510.185" rx="255.092" fill="white"/>
<path fill-rule="evenodd" clip-rule="evenodd" d="M101.925 188.864C110.483 175.77 115.415 165.631 118.665 152.83C121.27 91.7033 165.893 43.0488 220.558 43.0488C231.072 43.0488 241.215 44.8488 250.758 48.1913C260.302 44.8488 270.445 43.0488 280.959 43.0488C336.029 43.0488 380.908 92.4273 382.903 154.192C384.717 176.621 388.251 189.586 398.77 208.135C417.026 225.739 428.61 251.987 428.61 281.306C428.61 283.833 428.524 286.338 428.355 288.816C443.228 293.396 454.113 308.129 454.113 325.597C454.113 346.724 438.188 363.851 418.543 363.851C410.47 363.851 403.025 360.959 397.056 356.085C382.555 369.343 364.117 377.278 344.047 377.278C308.478 377.278 278.037 352.354 265.546 317.056C250.446 359.442 213.757 389.357 170.893 389.357C145.852 389.357 122.919 379.148 105.166 362.207C99.0824 367.436 91.368 370.563 82.9745 370.563C63.3296 370.563 47.4043 353.436 47.4043 332.308C47.4043 315.778 57.153 301.697 70.8045 296.351C69.542 289.096 68.8802 281.596 68.8802 273.922C68.8802 240.261 81.6127 209.964 101.925 188.864Z" fill="#2B2B2B"/>
<g filter="url(#filter0_d_420_1329)">
<path d="M147.918 427.869L168.827 351.126C171.163 342.552 163.815 334.449 155.054 335.938L136.837 339.035C133.669 339.573 130.842 341.344 128.975 343.961L71.623 424.334C70.8468 425.421 70.2552 426.629 69.8719 427.91L48.1559 500.436C46.1713 507.064 50.1077 514.01 56.8135 515.713L104.42 527.804C110.673 529.392 117.078 525.822 119.015 519.668L147.918 427.869Z" fill="#FFD8B6"/>
<line x1="83.4193" y1="434.305" x2="124.488" y2="452.963" stroke="#F3C59B" stroke-width="4.86508"/>
<path fill-rule="evenodd" clip-rule="evenodd" d="M103.352 509.607C103.352 509.606 103.352 509.606 103.352 509.606C103.674 508.224 96.0952 505.279 86.4245 503.027C76.7537 500.775 68.6533 500.069 68.3316 501.451C68.3309 501.454 68.3303 501.456 68.3297 501.459L61.924 528.968L96.9449 537.123L103.352 509.607L103.352 509.607Z" fill="#FFD8B6"/>
<path d="M91.7387 592.405C132.785 508.685 18.0991 493.237 23.554 578.627" stroke="#FFD8B6" stroke-width="32.2145" stroke-linecap="round"/>
<path d="M373.452 430.552L352.651 353.799C350.325 345.219 357.686 337.118 366.445 338.618L384.612 341.729C387.779 342.272 390.601 344.046 392.463 346.664L449.668 427.099C450.441 428.187 451.031 429.395 451.412 430.675L473.026 503.221C475.002 509.853 471.057 516.799 464.35 518.496L416.805 530.531C410.552 532.114 404.154 528.538 402.226 522.382L373.452 430.552Z" fill="#FFD8B6"/>
<line y1="-2.43254" x2="45.0677" y2="-2.43254" transform="matrix(-0.910716 0.413034 0.412284 0.911055 438.875 439.273)" stroke="#F3C59B" stroke-width="4.86507"/>
<path fill-rule="evenodd" clip-rule="evenodd" d="M412.035 514.969C412.034 514.967 412.034 514.966 412.033 514.964C411.819 513.935 421.807 510.485 434.343 507.258C446.879 504.032 457.215 502.25 457.43 503.279C457.431 503.284 457.432 503.289 457.432 503.294L461.706 523.779L416.309 535.464L412.034 514.969L412.035 514.969Z" fill="#FFD8B6"/>
<path d="M423.154 596.63C385.31 510.674 491.306 494.941 486.177 582.562" stroke="#FFD8B6" stroke-width="32.2145" stroke-linecap="round"/>
<path d="M148.665 347.923C149.618 335.226 160.201 325.412 172.935 325.419L344.04 325.51C356.363 325.516 366.735 334.737 368.184 346.975L395.682 579.258L131.301 579.258L148.665 347.923Z" fill="#EB2831"/>
<path d="M160.628 187.244C160.639 167.092 176.984 150.765 197.136 150.775L313.192 150.837C333.344 150.848 349.672 167.193 349.661 187.344L349.618 268.473C349.607 288.625 333.262 304.952 313.11 304.942L197.054 304.88C176.902 304.869 160.574 288.524 160.585 268.372L160.628 187.244Z" fill="#FFD8B6"/>
<rect x="198.154" y="127.656" width="120.715" height="23.1157" transform="rotate(0.0304899 198.154 127.656)" fill="#FFD8B6"/>
<rect x="198.061" y="302.303" width="120.715" height="23.1157" transform="rotate(0.0304899 198.061 302.303)" fill="#FFD8B6"/>
<path d="M148.747 330.964L206.465 324.252L256.8 324.252L365.524 324.252L368.88 354.454L371.564 370.561L260.279 389.81L146.006 376.955L148.747 330.964Z" fill="#FFD8B6"/>
<g filter="url(#filter1_d_420_1329)">
<path d="M210.932 306.076C210.932 306.076 218.154 314.754 264.419 314.779C310.683 314.803 303.298 308.434 303.298 308.434" stroke="#F0BA89" stroke-width="2.73856"/>
</g>
</g>
<path fill-rule="evenodd" clip-rule="evenodd" d="M176.67 242.749L180.83 238.068C186.184 230.418 189.683 217.767 189.683 203.455C189.683 180.104 180.368 161.174 168.878 161.174C157.387 161.174 148.072 180.104 148.072 203.455C148.072 214.01 149.975 223.661 153.122 231.069L150.599 231.102C143.928 231.19 138.591 236.669 138.678 243.34L139.372 296.228C139.413 299.402 140.675 302.273 142.705 304.403L142.705 304.475C142.705 315.032 153.522 323.589 166.866 323.589C180.209 323.589 184.315 315.032 184.315 304.475C184.315 300.826 183.452 299.548 181.772 299.437C181.824 299.271 181.873 299.103 181.918 298.934C173.55 294.949 167.392 283.275 167.21 269.415C167.063 258.218 170.853 248.346 176.67 242.749Z" fill="#2A2A2A"/>
<path fill-rule="evenodd" clip-rule="evenodd" d="M339.321 242.771L334.795 238.051C329.025 230.399 325.256 217.757 325.256 203.455C325.256 180.104 335.306 161.174 347.704 161.174C360.101 161.174 370.151 180.104 370.151 203.455C370.151 214.01 368.098 223.661 364.703 231.069L368.38 231.114C375.051 231.195 380.383 236.669 380.288 243.34L379.54 296.228C379.493 299.533 378.124 302.511 375.944 304.666C375.804 315.135 364.187 323.589 349.876 323.589C335.479 323.589 331.049 315.032 331.049 304.475C331.049 300.858 331.964 299.57 333.746 299.44C333.695 299.277 333.648 299.113 333.604 298.947C342.647 294.975 349.307 283.29 349.503 269.415C349.661 258.233 345.583 248.371 339.321 242.771Z" fill="#2A2A2A"/>
<path d="M168.211 315.781L178.15 296.743L195.49 303.635C197.341 304.371 198.786 305.902 199.359 307.81C205.081 326.865 200.621 330.22 188.541 326.395L168.211 315.781Z" fill="#2A2A2A"/>
<path fill-rule="evenodd" clip-rule="evenodd" d="M258.943 99.7949L166.867 124.56V186.791H167.604C180.32 175.716 196.94 169.009 215.127 169.009C231.883 169.009 247.31 174.702 259.578 184.259C271.846 174.702 287.273 169.009 304.029 169.009C321.368 169.009 337.284 175.105 349.749 185.271V124.56L258.943 99.7949Z" fill="#2A2A2A"/>
<path fill-rule="evenodd" clip-rule="evenodd" d="M258.943 96.7461L166.867 121.511V183.742H167.606C180.321 172.668 196.941 165.961 215.127 165.961C231.883 165.961 247.31 171.654 259.578 181.211C271.846 171.654 287.272 165.961 304.028 165.961C321.368 165.961 337.284 172.058 349.749 182.225V121.511L258.943 96.7461Z" fill="#FFC700"/>
<path d="M261.484 104.367L268.469 125.867H291.076L272.787 139.155L279.773 160.655L261.484 147.368L243.194 160.655L250.18 139.155L231.891 125.867H254.498L261.484 104.367Z" fill="#EB2831"/>
<ellipse cx="160.95" cy="327.212" rx="40.9393" ry="15.1503" transform="rotate(-6.56519 160.95 327.212)" fill="#2A2A2A"/>
<ellipse cx="356.793" cy="337.201" rx="40.9393" ry="15.1503" transform="rotate(22.6084 356.793 337.201)" fill="#2A2A2A"/>
<path d="M146.26 361.84L261.548 381.503L372.235 365.867L376.262 405.464L261.548 422.913L144.049 401.437L146.26 361.84Z" fill="white"/>
<path d="M255.927 369.225L293.363 392.379H218.492L255.927 369.225Z" fill="white"/>
<path d="M257.527 390.699L294.962 413.853H220.092L257.527 390.699Z" fill="#FFC700"/>
<path fill-rule="evenodd" clip-rule="evenodd" d="M144.719 386.664L263.656 406.999L374.247 391.362L377.988 422.353C363.241 419.431 340.718 419.946 316.347 424.494C290.913 429.24 269.523 437.25 257.939 445.511C245.796 438.1 225.965 431.15 202.8 426.914C179.102 422.58 157.167 422.046 142.429 424.747L144.719 386.664Z" fill="#FFC700"/>
<ellipse cx="153.849" cy="337.016" rx="58.4885" ry="38.0111" transform="rotate(-15.2508 153.849 337.016)" fill="#2A2A2A"/>
<path d="M259.265 249.366L252.884 247.938C251.622 247.656 250.3 247.859 249.181 248.507C246.723 249.93 245.883 253.076 247.304 255.535L250.922 261.796C251.9 263.488 253.706 264.531 255.661 264.532L265.292 264.538C267.219 264.539 269.005 263.527 269.995 261.874L275.321 252.975C275.487 252.698 275.575 252.381 275.574 252.058C275.574 251.451 275.265 250.885 274.753 250.557L271.917 248.74C270.689 247.952 269.197 247.688 267.772 248.005L261.652 249.368C260.866 249.543 260.051 249.542 259.265 249.366Z" fill="#FF3938"/>
<path d="M234.86 246.748C257.993 259.777 269.633 256.785 289.799 246.777" stroke="black" stroke-width="1.91699"/>
<ellipse cx="288.372" cy="216.412" rx="10.1204" ry="13.0119" transform="rotate(0.0304899 288.372 216.412)" fill="black"/>
<ellipse cx="230.54" cy="217.258" rx="10.1204" ry="13.0119" transform="rotate(0.0304899 230.54 217.258)" fill="black"/>
<path d="M278.26 197.614C286.153 193.709 290.617 193.82 298.5 197.625" stroke="black" stroke-width="1.36928"/>
<path d="M220.43 197.583C228.324 193.678 232.787 193.788 240.671 197.594" stroke="black" stroke-width="1.36928"/>
<path d="M297.858 203.686C296.385 207.49 294.888 208.16 291.663 208.108" stroke="black" stroke-width="2.01341"/>
<path d="M238.799 203.686C237.325 207.49 235.829 208.16 232.603 208.108" stroke="black" stroke-width="2.01341"/>
</g>
<defs>
<filter id="filter0_d_420_1329" x="1.97368" y="127.656" width="537.361" height="834.634" filterUnits="userSpaceOnUse" color-interpolation-filters="sRGB">
<feFlood flood-opacity="0" result="BackgroundImageFix"/>
<feColorMatrix in="SourceAlpha" type="matrix" values="0 0 0 0 0 0 0 0 0 0 0 0 0 0 0 0 0 0 127 0" result="hardAlpha"/>
<feOffset dx="15.8568" dy="21.1424"/>
<feGaussianBlur stdDeviation="10.5712"/>
<feComposite in2="hardAlpha" operator="out"/>
<feColorMatrix type="matrix" values="0 0 0 0 0 0 0 0 0 0 0 0 0 0 0 0 0 0 0.25 0"/>
<feBlend mode="normal" in2="BackgroundImageFix" result="effect1_dropShadow_420_1329"/>
<feBlend mode="normal" in="SourceGraphic" in2="effect1_dropShadow_420_1329" result="shape"/>
</filter>
<filter id="filter1_d_420_1329" x="202.762" y="300.794" width="109.459" height="25.2132" filterUnits="userSpaceOnUse" color-interpolation-filters="sRGB">
<feFlood flood-opacity="0" result="BackgroundImageFix"/>
<feColorMatrix in="SourceAlpha" type="matrix" values="0 0 0 0 0 0 0 0 0 0 0 0 0 0 0 0 0 0 127 0" result="hardAlpha"/>
<feOffset dy="2.73856"/>
<feGaussianBlur stdDeviation="3.56013"/>
<feComposite in2="hardAlpha" operator="out"/>
<feColorMatrix type="matrix" values="0 0 0 0 0 0 0 0 0 0 0 0 0 0 0 0 0 0 0.25 0"/>
<feBlend mode="normal" in2="BackgroundImageFix" result="effect1_dropShadow_420_1329"/>
<feBlend mode="normal" in="SourceGraphic" in2="effect1_dropShadow_420_1329" result="shape"/>
</filter>
<clipPath id="clip0_420_1329">
<rect width="510.185" height="510.185" rx="255.092" fill="white"/>
</clipPath>
</defs>
</svg>
